HIERARCHY
ROOT hips
{
	OFFSET 0.000000 104.274902 0.000000
	CHANNELS 6 Xposition Yposition Zposition Xrotation Yrotation Zrotation
	JOINT spine
	{
		OFFSET 0.000000 10.181549 0.131524
		CHANNELS 6 Xposition Yposition Zposition Xrotation Yrotation Zrotation
		JOINT chest
		{
			OFFSET 0.000000 9.893990 -1.470706
			CHANNELS 3 Xrotation Yrotation Zrotation
			JOINT upperChest
			{
				OFFSET 0.000000 9.220787 -1.370637
				CHANNELS 3 Xrotation Yrotation Zrotation
				JOINT neck
				{
					OFFSET 0.000000 16.740372 -2.049022
					CHANNELS 6 Xposition Yposition Zposition Xrotation Yrotation Zrotation
					JOINT head
					{
						OFFSET 0.000000 9.617859 1.684976
						CHANNELS 6 Xposition Yposition Zposition Xrotation Yrotation Zrotation
						JOINT headEnd
						{
							OFFSET 0.000000 22.037384 7.501072
							CHANNELS 6 Xposition Yposition Zposition Xrotation Yrotation Zrotation
							End Site
							{
								OFFSET 0.000000 23.106567 -2.828246
							}
						}
					}
				}
				JOINT rightShoulder
				{
					OFFSET -4.570000 11.014877 -2.160840
					CHANNELS 6 Xposition Yposition Zposition Xrotation Yrotation Zrotation
					JOINT rightUpperArm
					{
						OFFSET -10.592867 -0.524796 -2.232105
						CHANNELS 3 Xrotation Yrotation Zrotation
						JOINT rightLowerArm
						{
							OFFSET -27.841497 0.000000 -0.000002
							CHANNELS 3 Xrotation Yrotation Zrotation
							JOINT rightHand
							{
								OFFSET -28.328812 0.000000 -0.000001
								CHANNELS 3 Xrotation Yrotation Zrotation
								JOINT rightThumbProximal
								{
									OFFSET -2.464798 -1.573990 2.681911
									CHANNELS 6 Xposition Yposition Zposition Xrotation Yrotation Zrotation
									JOINT rightThumbIntermediate
									{
										OFFSET -3.244781 -1.873383 1.873376
										CHANNELS 3 Xrotation Yrotation Zrotation
										JOINT rightThumbDistal
										{
											OFFSET -2.646263 -1.527817 1.527818
											CHANNELS 6 Xposition Yposition Zposition Xrotation Yrotation Zrotation
											JOINT rightHandThumb4
											{
												OFFSET -1.994591 -1.151581 1.151575
												CHANNELS 6 Xposition Yposition Zposition Xrotation Yrotation Zrotation
												End Site
												{
													OFFSET -1.860176 -1.142715 1.365483
												}
											}
										}
									}
								}
								JOINT rightIndexProximal
								{
									OFFSET -9.108299 -0.517883 2.259803
									CHANNELS 6 Xposition Yposition Zposition Xrotation Yrotation Zrotation
									JOINT rightIndexIntermediate
									{
										OFFSET -3.699997 0.000000 0.000000
										CHANNELS 3 Xrotation Yrotation Zrotation
										JOINT rightIndexDistal
										{
											OFFSET -2.850006 0.000000 0.000000
											CHANNELS 3 Xrotation Yrotation Zrotation
											JOINT rightHandIndex4
											{
												OFFSET -2.772194 0.000000 0.000000
												CHANNELS 3 Xrotation Yrotation Zrotation
												End Site
												{
													OFFSET -2.772202 0.000000 -0.000484
												}
											}
										}
									}
								}
								JOINT rightMiddleProximal
								{
									OFFSET -9.532501 0.000000 -0.000000
									CHANNELS 6 Xposition Yposition Zposition Xrotation Yrotation Zrotation
									JOINT rightMiddleIntermediate
									{
										OFFSET -3.699997 0.000000 0.000000
										CHANNELS 3 Xrotation Yrotation Zrotation
										JOINT rightMiddleDistal
										{
											OFFSET -2.949997 0.000000 0.000000
											CHANNELS 3 Xrotation Yrotation Zrotation
											JOINT rightHandMiddle4
											{
												OFFSET -2.946594 0.000000 0.000000
												CHANNELS 3 Xrotation Yrotation Zrotation
												End Site
												{
													OFFSET -2.946602 0.000000 -0.000982
												}
											}
										}
									}
								}
								JOINT rightRingProximal
								{
									OFFSET -9.103600 -0.043106 -1.865100
									CHANNELS 6 Xposition Yposition Zposition Xrotation Yrotation Zrotation
									JOINT rightRingIntermediate
									{
										OFFSET -3.379303 0.000000 0.000000
										CHANNELS 3 Xrotation Yrotation Zrotation
										JOINT rightRingDistal
										{
											OFFSET -2.889694 0.000000 0.000000
											CHANNELS 3 Xrotation Yrotation Zrotation
											JOINT rightHandRing4
											{
												OFFSET -2.638802 0.000000 0.000000
												CHANNELS 3 Xrotation Yrotation Zrotation
												End Site
												{
													OFFSET -2.638802 0.000000 0.004218
												}
											}
										}
									}
								}
								JOINT rightLittleProximal
								{
									OFFSET -8.076698 -0.486725 -3.806299
									CHANNELS 6 Xposition Yposition Zposition Xrotation Yrotation Zrotation
									JOINT rightLittleIntermediate
									{
										OFFSET -3.600006 0.000000 0.000000
										CHANNELS 3 Xrotation Yrotation Zrotation
										JOINT rightLittleDistal
										{
											OFFSET -2.099998 0.000000 0.000000
											CHANNELS 3 Xrotation Yrotation Zrotation
											JOINT rightHandPinky4
											{
												OFFSET -2.115791 0.000000 0.000000
												CHANNELS 3 Xrotation Yrotation Zrotation
												End Site
												{
													OFFSET -2.115799 0.000000 0.000174
												}
											}
										}
									}
								}
							}
						}
					}
				}
				JOINT leftShoulder
				{
					OFFSET 4.570400 11.014679 -2.160816
					CHANNELS 6 Xposition Yposition Zposition Xrotation Yrotation Zrotation
					JOINT leftUpperArm
					{
						OFFSET 10.592373 -0.524597 -2.232116
						CHANNELS 3 Xrotation Yrotation Zrotation
						JOINT leftLowerArm
						{
							OFFSET 27.841488 0.000000 0.000001
							CHANNELS 3 Xrotation Yrotation Zrotation
							JOINT leftHand
							{
								OFFSET 28.328808 0.000000 -0.000000
								CHANNELS 3 Xrotation Yrotation Zrotation
								JOINT leftThumbProximal
								{
									OFFSET 2.466103 -1.576202 2.681698
									CHANNELS 6 Xposition Yposition Zposition Xrotation Yrotation Zrotation
									JOINT leftThumbIntermediate
									{
										OFFSET 3.243317 -1.872528 1.872530
										CHANNELS 3 Xrotation Yrotation Zrotation
										JOINT leftThumbDistal
										{
											OFFSET 2.647881 -1.528763 1.528754
											CHANNELS 6 Xposition Yposition Zposition Xrotation Yrotation Zrotation
											JOINT leftHandThumb4
											{
												OFFSET 1.998924 -1.154083 1.154080
												CHANNELS 6 Xposition Yposition Zposition Xrotation Yrotation Zrotation
												End Site
												{
													OFFSET 1.884041 -1.149155 1.337651
												}
											}
										}
									}
								}
								JOINT leftIndexProximal
								{
									OFFSET 9.109299 -0.518005 2.259900
									CHANNELS 6 Xposition Yposition Zposition Xrotation Yrotation Zrotation
									JOINT leftIndexIntermediate
									{
										OFFSET 3.699997 0.000000 0.000000
										CHANNELS 3 Xrotation Yrotation Zrotation
										JOINT leftIndexDistal
										{
											OFFSET 2.850006 0.000000 0.000000
											CHANNELS 3 Xrotation Yrotation Zrotation
											JOINT leftHandIndex4
											{
												OFFSET 2.774895 0.000000 0.000000
												CHANNELS 3 Xrotation Yrotation Zrotation
												End Site
												{
													OFFSET 2.774902 0.000000 -0.000072
												}
											}
										}
									}
								}
								JOINT leftMiddleProximal
								{
									OFFSET 9.533401 0.000000 0.000000
									CHANNELS 6 Xposition Yposition Zposition Xrotation Yrotation Zrotation
									JOINT leftMiddleIntermediate
									{
										OFFSET 3.699997 0.000000 0.000000
										CHANNELS 3 Xrotation Yrotation Zrotation
										JOINT leftMiddleDistal
										{
											OFFSET 2.949997 0.000000 0.000000
											CHANNELS 3 Xrotation Yrotation Zrotation
											JOINT leftHandMiddle4
											{
												OFFSET 2.952896 0.000000 0.000000
												CHANNELS 3 Xrotation Yrotation Zrotation
												End Site
												{
													OFFSET 2.952904 0.000000 0.000165
												}
											}
										}
									}
								}
								JOINT leftRingProximal
								{
									OFFSET 9.104500 -0.042999 -1.865101
									CHANNELS 6 Xposition Yposition Zposition Xrotation Yrotation Zrotation
									JOINT leftRingIntermediate
									{
										OFFSET 3.149994 0.000000 0.000000
										CHANNELS 3 Xrotation Yrotation Zrotation
										JOINT leftRingDistal
										{
											OFFSET 2.950005 0.000000 0.000000
											CHANNELS 3 Xrotation Yrotation Zrotation
											JOINT leftHandRing4
											{
												OFFSET 2.644302 0.000000 0.000000
												CHANNELS 3 Xrotation Yrotation Zrotation
												End Site
												{
													OFFSET 2.644302 0.000000 0.000083
												}
											}
										}
									}
								}
								JOINT leftLittleProximal
								{
									OFFSET 8.077805 -0.486893 -3.806302
									CHANNELS 6 Xposition Yposition Zposition Xrotation Yrotation Zrotation
									JOINT leftLittleIntermediate
									{
										OFFSET 3.600006 0.000000 0.000000
										CHANNELS 3 Xrotation Yrotation Zrotation
										JOINT leftLittleDistal
										{
											OFFSET 2.099998 0.000000 0.000000
											CHANNELS 3 Xrotation Yrotation Zrotation
											JOINT leftHandPinky4
											{
												OFFSET 2.125496 0.000000 0.000000
												CHANNELS 3 Xrotation Yrotation Zrotation
												End Site
												{
													OFFSET 2.125504 0.000000 -0.001254
												}
											}
										}
									}
								}
							}
						}
					}
				}
			}
		}
	}
	JOINT rightUpperLeg
	{
		OFFSET -8.207800 -6.751701 -1.599544
		CHANNELS 6 Xposition Yposition Zposition Xrotation Yrotation Zrotation
		JOINT rightLowerLeg
		{
			OFFSET 0.000004 -44.370152 0.345934
			CHANNELS 3 Xrotation Yrotation Zrotation
			JOINT rightFoot
			{
				OFFSET 0.000004 -44.423664 -3.043535
				CHANNELS 3 Xrotation Yrotation Zrotation
				JOINT rightToes
				{
					OFFSET 0.000001 -8.728691 10.710592
					CHANNELS 3 Xrotation Yrotation Zrotation
					JOINT rightToesEnd
					{
						OFFSET 0.000000 -0.000665 9.278101
						CHANNELS 3 Xrotation Yrotation Zrotation
						End Site
						{
							OFFSET 0.000000 -0.000665 9.278103
						}
					}
				}
			}
		}
	}
	JOINT leftUpperLeg
	{
		OFFSET 8.207800 -6.751701 -1.599544
		CHANNELS 6 Xposition Yposition Zposition Xrotation Yrotation Zrotation
		JOINT leftLowerLeg
		{
			OFFSET 0.000004 -44.370037 0.346940
			CHANNELS 3 Xrotation Yrotation Zrotation
			JOINT leftFoot
			{
				OFFSET 0.000004 -44.423611 -3.044388
				CHANNELS 3 Xrotation Yrotation Zrotation
				JOINT leftToes
				{
					OFFSET 0.000001 -8.728690 10.710592
					CHANNELS 3 Xrotation Yrotation Zrotation
					JOINT leftToesEnd
					{
						OFFSET 0.000000 -0.000680 9.278101
						CHANNELS 3 Xrotation Yrotation Zrotation
						End Site
						{
							OFFSET 0.000000 -0.000680 9.278101
						}
					}
				}
			}
		}
	}
}
MOTION
Frames: 4
Frame Time: 0.033333
-0.051137 102.354630 1.853262 -362.978519 -1.612772 -359.523919 0.000000 10.181539 0.131524 0.978400 -0.201466 0.285512 1.958809 -0.410783 0.741973 1.958811 -0.410780 0.741972 -0.000000 16.740362 -2.049018 3.370782 0.063815 -1.889436 -0.000000 9.617851 1.684977 -0.444440 -2.151812 0.688683 -0.000000 22.037384 7.501072 -0.000001 -0.000000 0.000000 -4.570004 11.014828 -2.160838 0.594630 9.815197 9.571382 2.153681 -3.716199 69.262162 -0.000005 23.054568 0.000028 21.797051 -1.324696 15.960161 -2.464812 -1.573991 2.681911 -7.239402 -12.374626 -8.817133 6.779456 -16.130132 -0.408013 -2.646278 -1.527812 1.527819 -1.239884 -7.844530 -2.405707 -1.994590 -1.151582 1.151577 0.000000 -0.000008 0.000003 -9.108305 -0.517880 2.259803 0.255794 -1.872238 15.558828 0.255795 -1.872223 15.558838 0.255808 -1.872237 15.558855 0.000002 0.000001 0.000002 -9.532503 0.000004 -0.000001 0.255794 -1.872238 15.558829 0.255793 -1.872223 15.558836 0.255808 -1.872237 15.558857 -0.000004 0.000004 -0.000000 -9.103602 -0.043111 -1.865103 0.255794 -1.872238 15.558826 0.255795 -1.872224 15.558836 0.255809 -1.872236 15.558855 -0.000001 -0.000001 0.000004 -8.076708 -0.486731 -3.806301 0.255794 -1.872241 15.558829 0.255804 -1.872228 15.558843 0.255802 -1.872227 15.558846 0.000000 -0.000001 0.000001 4.570402 11.014661 -2.160813 0.560194 -4.449250 -13.129607 -6.246954 3.196331 -68.072705 0.000019 -6.541826 0.000004 25.393788 -8.877421 -9.147057 2.466083 -1.576185 2.681698 -5.106303 11.019750 11.497730 15.692769 17.219663 4.433577 2.647896 -1.528756 1.528756 5.377410 15.013125 4.290286 1.998921 -1.154090 1.154072 0.000000 0.000000 0.000001 9.109286 -0.518011 2.259901 0.125666 1.312267 -10.941908 0.125674 1.312247 -10.941935 0.125676 1.312247 -10.941928 -0.000003 -0.000002 -0.000001 9.533380 0.000007 -0.000001 0.125304 1.310365 -10.925943 0.126039 1.314138 -10.957926 0.125677 1.312251 -10.941931 -0.000003 0.000002 0.000000 9.104482 -0.042998 -1.865102 0.125666 1.312267 -10.941906 0.125673 1.312246 -10.941934 0.125676 1.312247 -10.941929 -0.000001 -0.000000 0.000001 8.077782 -0.486895 -3.806299 0.880110 5.296016 -10.474995 0.119413 -2.743176 -11.443429 0.125679 1.312254 -10.941926 -0.000002 -0.000000 -0.000000 -8.207801 -6.751719 -1.599543 -6.243533 -3.664445 0.020475 20.109200 -6.156317 -2.619912 -10.693505 -7.085827 2.599308 -0.984912 0.000000 0.000001 -0.000000 -0.000001 0.000000 8.207800 -6.751698 -1.599543 -4.677092 12.775675 1.106852 18.934784 2.601488 0.994843 -11.330485 0.391384 -1.442040 -0.000030 0.000002 -0.000003 -0.000000 -0.000000 0.000000 
-0.206705 102.360008 1.895538 -362.920708 -1.588263 -359.513537 0.000000 10.181556 0.131522 0.971129 -0.194657 0.272436 1.944116 -0.397385 0.715269 1.944114 -0.397386 0.715270 -0.000001 16.740358 -2.049021 3.348275 0.058404 -1.867398 0.000000 9.617862 1.684975 -0.552694 -2.157303 0.712603 0.000000 22.037369 7.501072 -0.000000 0.000000 -0.000000 -4.570001 11.014894 -2.160841 0.593321 9.870181 9.592762 2.149120 -3.758885 69.225545 -0.000010 22.905702 0.000024 22.061890 -1.389704 15.873162 -2.464786 -1.573994 2.681910 -7.239404 -12.374625 -8.817136 6.779457 -16.130134 -0.408007 -2.646274 -1.527810 1.527818 -1.239880 -7.844535 -2.405709 -1.994599 -1.151583 1.151577 0.000001 -0.000006 0.000003 -9.108290 -0.517880 2.259803 0.255792 -1.872237 15.558833 0.255795 -1.872223 15.558838 0.255809 -1.872237 15.558857 -0.000000 0.000000 -0.000002 -9.532499 0.000004 -0.000002 0.255792 -1.872238 15.558831 0.255796 -1.872225 15.558835 0.255810 -1.872237 15.558855 -0.000003 0.000001 0.000001 -9.103588 -0.043104 -1.865100 0.255790 -1.872237 15.558829 0.255797 -1.872223 15.558836 0.255810 -1.872237 15.558857 -0.000002 0.000003 0.000003 -8.076685 -0.486728 -3.806298 0.255792 -1.872240 15.558831 0.255803 -1.872229 15.558840 0.255800 -1.872228 15.558852 -0.000004 0.000002 0.000003 4.570405 11.014685 -2.160816 0.557631 -4.447093 -13.144792 -6.098014 3.139353 -68.087635 0.000000 -6.695862 -0.000016 25.285985 -8.786588 -9.363914 2.466073 -1.576218 2.681700 -5.106286 11.019737 11.497724 15.741236 17.261760 4.449736 2.647898 -1.528749 1.528751 5.402112 15.071221 4.297352 1.998922 -1.154091 1.154072 -0.000003 0.000001 -0.000002 9.109287 -0.518014 2.259899 0.125668 1.312257 -10.941934 0.125667 1.312253 -10.941940 0.125683 1.312246 -10.941937 -0.000001 0.000001 -0.000002 9.533381 0.000005 0.000000 0.125315 1.310356 -10.925946 0.126032 1.314150 -10.957915 0.125676 1.312245 -10.941941 -0.000004 -0.000000 0.000001 9.104493 -0.043001 -1.865104 0.125668 1.312257 -10.941933 0.125669 1.312254 -10.941939 0.125683 1.312248 -10.941937 0.000001 0.000001 0.000001 8.077783 -0.486895 -3.806302 0.880107 5.295999 -10.475028 0.119418 -2.743159 -11.443402 0.125667 1.312240 -10.941937 -0.000000 0.000002 0.000005 -8.207801 -6.751712 -1.599543 -6.235278 -3.651021 0.099117 20.062274 -6.129329 -2.594294 -10.736187 -7.012804 2.491105 -0.929392 0.000000 0.000001 0.000000 0.000000 0.000000 8.207798 -6.751704 -1.599544 -4.689874 12.752421 1.173994 18.868529 2.616639 1.029139 -11.301240 0.403587 -1.564483 -0.000059 0.000007 0.000003 -0.000000 0.000000 0.000000 
-0.331081 102.361198 1.956154 -362.864291 -1.587204 -359.515941 0.000000 10.181560 0.131523 0.972553 -0.189664 0.266921 1.946846 -0.387263 0.701905 1.946848 -0.387261 0.701904 -0.000001 16.740355 -2.049018 3.295775 0.062588 -1.860624 0.000000 9.617818 1.684978 -0.684999 -2.134845 0.743517 0.000000 22.037384 7.501073 -0.000000 -0.000000 0.000000 -4.570002 11.014850 -2.160836 0.593297 9.875377 9.591698 2.155996 -3.769773 69.180930 0.000002 22.864579 0.000018 22.079869 -1.452821 15.862776 -2.464791 -1.573978 2.681910 -7.239407 -12.374624 -8.817135 6.779457 -16.130134 -0.408012 -2.646267 -1.527813 1.527818 -1.239884 -7.844533 -2.405705 -1.994594 -1.151584 1.151577 -0.000001 0.000000 0.000001 -9.108294 -0.517880 2.259801 0.255791 -1.872237 15.558833 0.255796 -1.872223 15.558838 0.255812 -1.872238 15.558855 0.000002 -0.000001 -0.000001 -9.532492 0.000004 -0.000001 0.255791 -1.872237 15.558833 0.255801 -1.872222 15.558838 0.255812 -1.872237 15.558855 0.000001 0.000000 0.000002 -9.103592 -0.043108 -1.865102 0.255791 -1.872237 15.558829 0.255800 -1.872224 15.558838 0.255812 -1.872238 15.558852 -0.000000 0.000001 0.000004 -8.076685 -0.486726 -3.806297 0.255793 -1.872240 15.558833 0.255805 -1.872227 15.558840 0.255795 -1.872225 15.558840 -0.000001 0.000002 0.000002 4.570396 11.014666 -2.160812 0.556239 -4.468643 -13.201171 -5.941100 3.104358 -68.008890 0.000008 -6.859058 0.000002 24.867319 -8.659440 -9.601714 2.466093 -1.576213 2.681696 -5.106277 11.019747 11.497717 15.783119 17.298267 4.463935 2.647886 -1.528754 1.528752 5.423485 15.121557 4.303557 1.998917 -1.154092 1.154069 0.000003 -0.000002 -0.000000 9.109276 -0.518015 2.259900 0.125666 1.312255 -10.941929 0.125687 1.312253 -10.941920 0.125670 1.312249 -10.941935 0.000000 -0.000000 -0.000001 9.533400 0.000002 -0.000002 0.125304 1.310360 -10.925933 0.126041 1.314144 -10.957918 0.125665 1.312248 -10.941941 -0.000002 -0.000002 -0.000002 9.104495 -0.043002 -1.865102 0.125666 1.312255 -10.941927 0.125683 1.312252 -10.941920 0.125672 1.312249 -10.941934 -0.000001 -0.000001 -0.000001 8.077804 -0.486895 -3.806302 0.880113 5.295999 -10.475019 0.119408 -2.743169 -11.443419 0.125661 1.312246 -10.941937 0.000001 0.000000 -0.000003 -8.207800 -6.751715 -1.599543 -6.222282 -3.619589 0.184512 20.020794 -6.114282 -2.595488 -10.780808 -6.949754 2.420352 -0.881917 0.000012 -0.000000 -0.000000 0.000000 0.000000 8.207799 -6.751709 -1.599544 -4.702930 12.739191 1.240196 18.831359 2.635310 1.057432 -11.302855 0.414963 -1.669139 -0.000058 -0.000000 0.000005 -0.000000 -0.000000 0.000000 
-0.421495 102.362579 2.042387 -362.813392 -1.584862 -359.526978 0.000000 10.181539 0.131522 0.975147 -0.189777 0.268227 1.952006 -0.387105 0.699974 1.952006 -0.387106 0.699974 -0.000000 16.740328 -2.049017 3.248359 0.061934 -1.857610 0.000000 9.617869 1.684974 -0.815828 -2.139768 0.765888 0.000000 22.037369 7.501076 -0.000000 -0.000001 0.000000 -4.570001 11.014845 -2.160837 0.594632 9.826925 9.566563 2.187436 -3.755710 69.139191 0.000010 22.878115 0.000021 21.976842 -1.447652 15.791886 -2.464790 -1.574008 2.681910 -7.239404 -12.374623 -8.817139 6.779459 -16.130130 -0.408008 -2.646271 -1.527814 1.527815 -1.239883 -7.844535 -2.405707 -1.994597 -1.151581 1.151578 0.000001 -0.000003 -0.000000 -9.108301 -0.517875 2.259801 0.255793 -1.872236 15.558826 0.255793 -1.872222 15.558838 0.255813 -1.872240 15.558850 -0.000003 0.000003 -0.000003 -9.532495 0.000002 -0.000001 0.255793 -1.872236 15.558829 0.255794 -1.872223 15.558836 0.255814 -1.872238 15.558855 -0.000004 0.000003 0.000004 -9.103611 -0.043109 -1.865103 0.255793 -1.872236 15.558826 0.255793 -1.872222 15.558838 0.255811 -1.872239 15.558852 0.000000 -0.000002 0.000001 -8.076708 -0.486731 -3.806300 0.255795 -1.872239 15.558829 0.255807 -1.872228 15.558841 0.255797 -1.872226 15.558846 -0.000005 0.000004 0.000008 4.570401 11.014669 -2.160812 0.555498 -4.517038 -13.241137 -5.852342 3.161223 -67.933417 -0.000001 -6.910895 -0.000012 24.225583 -8.550184 -9.786298 2.466085 -1.576209 2.681699 -5.106302 11.019744 11.497701 15.812217 17.323726 4.473945 2.647888 -1.528749 1.528754 5.438342 15.156598 4.307966 1.998925 -1.154092 1.154071 -0.000002 -0.000001 -0.000000 9.109286 -0.518010 2.259898 0.125676 1.312244 -10.941934 0.125660 1.312259 -10.941931 0.125674 1.312256 -10.941931 -0.000002 -0.000001 -0.000002 9.533392 0.000001 -0.000002 0.125300 1.310355 -10.925936 0.126052 1.314159 -10.957904 0.125670 1.312248 -10.941931 -0.000002 -0.000003 -0.000003 9.104478 -0.042996 -1.865100 0.125677 1.312245 -10.941935 0.125660 1.312258 -10.941929 0.125672 1.312258 -10.941928 -0.000001 0.000001 0.000000 8.077801 -0.486896 -3.806305 0.880110 5.295995 -10.475013 0.119410 -2.743152 -11.443399 0.125669 1.312246 -10.941933 -0.000004 -0.000001 0.000002 -8.207800 -6.751718 -1.599544 -6.172053 -3.598074 0.249782 19.962152 -6.104856 -2.589492 -10.833739 -6.886362 2.373725 -0.865030 0.000007 -0.000000 0.000000 0.000002 0.000000 8.207800 -6.751695 -1.599544 -4.690271 12.739034 1.296720 18.789509 2.625132 1.081741 -11.322658 0.424369 -1.749796 -0.000059 -0.000002 0.000004 -0.000000 -0.000000 0.000000 
